<svg width="1200" height="300" viewBox="0 0 1200 300" xmlns="http://www.w3.org/2000/svg" role="img" aria-label="TickBench: benchmark your live data grid under real market load">
  <defs>
    <linearGradient id="bg" x1="0" y1="0" x2="1" y2="1">
      <stop offset="0" stop-color="#0b1220"/>
      <stop offset="0.55" stop-color="#0e1a2b"/>
      <stop offset="1" stop-color="#0a2230"/>
    </linearGradient>
    <linearGradient id="accent" x1="0" y1="0" x2="1" y2="0">
      <stop offset="0" stop-color="#22d3a5"/>
      <stop offset="1" stop-color="#38bdf8"/>
    </linearGradient>
  </defs>
  <rect width="1200" height="300" fill="url(#bg)"/>
  <g stroke="#1e3a52" stroke-width="1" opacity="0.35">
    <path d="M0 60H1200M0 120H1200M0 180H1200M0 240H1200"/>
    <path d="M200 0V300M400 0V300M600 0V300M800 0V300M1000 0V300"/>
  </g>
  <g font-family="ui-sans-serif,-apple-system,'Segoe UI',Helvetica,Arial,sans-serif">
    <text x="64" y="112" font-size="64" font-weight="800" fill="#f1f5f9">Tick<tspan fill="url(#accent)">Bench</tspan></text>
    <text x="66" y="150" font-size="21" fill="#94a3b8">Benchmark your live data grid under real market load.</text>
    <text x="66" y="178" font-size="16" fill="#64748b">Display staleness &#183; update latency &#183; frame stability &#183; money formatting &#183; XSS &#183; WCAG</text>
    <g font-size="13" font-weight="600">
      <rect x="66" y="206" rx="12" width="112" height="26" fill="#0f2e26" stroke="#22d3a5" stroke-width="1"/>
      <text x="122" y="223" fill="#22d3a5" text-anchor="middle">correctness</text>
      <rect x="188" y="206" rx="12" width="118" height="26" fill="#0d2836" stroke="#38bdf8" stroke-width="1"/>
      <text x="247" y="223" fill="#38bdf8" text-anchor="middle">performance</text>
      <rect x="316" y="206" rx="12" width="96" height="26" fill="#2b1a30" stroke="#e879f9" stroke-width="1"/>
      <text x="364" y="223" fill="#e879f9" text-anchor="middle">security</text>
      <rect x="422" y="206" rx="12" width="80" height="26" fill="#2e2410" stroke="#fbbf24" stroke-width="1"/>
      <text x="462" y="223" fill="#fbbf24" text-anchor="middle">a11y</text>
    </g>
  </g>
  <!-- mock live-quotes card -->
  <g>
    <rect x="672" y="22" width="464" height="200" rx="10" fill="#0d1626" stroke="#24405c" stroke-width="1.5"/>
    <text x="694" y="52" font-family="ui-sans-serif,'Segoe UI',sans-serif" font-size="14" font-weight="700" fill="#cbd5e1">LIVE QUOTES</text>
    <circle cx="1106" cy="47" r="5" fill="#22d3a5"/>
    <g font-family="ui-monospace,SFMono-Regular,Menlo,Consolas,monospace" font-size="14">
      <g fill="#64748b">
        <text x="694" y="82">SYM</text><text x="812" y="82">BID</text><text x="924" y="82">ASK</text><text x="1036" y="82">LAST</text>
      </g>
      <g fill="#e2e8f0">
        <text x="694" y="112">AAPL</text><text x="812" y="112" fill="#22d3a5">212,341.10</text><text x="924" y="112">212,341.35</text><text x="1036" y="112" fill="#22d3a5">&#9650; 341.20</text>
        <text x="694" y="142">MSFT</text><text x="812" y="142" fill="#f87171">418,220.55</text><text x="924" y="142">418,220.90</text><text x="1036" y="142" fill="#f87171">&#9660; 220.75</text>
        <text x="694" y="172">NVDA</text><text x="812" y="172">131,904.00</text><text x="924" y="172" fill="#22d3a5">131,904.40</text><text x="1036" y="172">904.15</text>
      </g>
      <rect x="804" y="126" width="104" height="24" rx="4" fill="none" stroke="#fbbf24" stroke-width="1.5" stroke-dasharray="4 3"/>
      <text x="694" y="206" font-size="12.5" fill="#fbbf24">&#9888; stale 412 ms &#8594; flagged by runtime oracle</text>
    </g>
  </g>
  <!-- frame-time sparkline, fully below the card -->
  <g transform="translate(672,282)">
    <text x="0" y="-40" font-family="ui-monospace,monospace" font-size="11" fill="#64748b">frame time</text>
    <polyline points="0,-12 32,-13 64,-11 96,-13 128,-12 160,-13 192,-30 208,-6 240,-12 272,-13 304,-11 336,-12 368,-13 400,-11 432,-12 460,-13" fill="none" stroke="#38bdf8" stroke-width="2" stroke-linejoin="round"/>
    <circle cx="192" cy="-30" r="3.5" fill="#f87171"/>
    <text x="204" y="-32" font-family="ui-monospace,monospace" font-size="11" fill="#f87171">long frame</text>
  </g>
  <rect x="0" y="296" width="1200" height="4" fill="url(#accent)"/>
</svg>
